<mxfile host="Electron" modified="2024-02-20T12:23:53.171Z" agent="Mozilla/5.0 (Windows NT 10.0; Win64; x64) AppleWebKit/537.36 (KHTML, like Gecko) draw.io/22.1.2 Chrome/114.0.5735.289 Electron/25.9.4 Safari/537.36" etag="lCGF9NS1t_eikKj9wM8z" version="22.1.2" type="device">
  <diagram name="Seite-1" id="UWWrgw4nvWXgH0_ZC5GL">
    <mxGraphModel dx="2603" dy="884" grid="1" gridSize="10" guides="1" tooltips="1" connect="1" arrows="1" fold="1" page="1" pageScale="1" pageWidth="1169" pageHeight="827" math="0" shadow="0">
      <root>
        <mxCell id="0" />
        <mxCell id="1" parent="0" />
        <mxCell id="ZGfRNfo8w7-t7I-uebtl-2" value="Ansprechpartner" style="swimlane;fontStyle=0;childLayout=stackLayout;horizontal=1;startSize=26;fillColor=none;horizontalStack=0;resizeParent=1;resizeParentMax=0;resizeLast=0;collapsible=1;marginBottom=0;whiteSpace=wrap;html=1;" parent="1" vertex="1" collapsed="1">
          <mxGeometry x="-200" y="250" width="130" height="30" as="geometry">
            <mxRectangle x="-210" y="270" width="160" height="52" as="alternateBounds" />
          </mxGeometry>
        </mxCell>
        <mxCell id="ZGfRNfo8w7-t7I-uebtl-6" value="Firmen" style="swimlane;fontStyle=0;childLayout=stackLayout;horizontal=1;startSize=26;fillColor=none;horizontalStack=0;resizeParent=1;resizeParentMax=0;resizeLast=0;collapsible=1;marginBottom=0;whiteSpace=wrap;html=1;" parent="1" vertex="1" collapsed="1">
          <mxGeometry x="40" y="220" width="70" height="30" as="geometry">
            <mxRectangle x="50" y="230" width="160" height="52" as="alternateBounds" />
          </mxGeometry>
        </mxCell>
        <mxCell id="ZGfRNfo8w7-t7I-uebtl-9" value="Inventar (LV)" style="swimlane;fontStyle=0;childLayout=stackLayout;horizontal=1;startSize=26;fillColor=none;horizontalStack=0;resizeParent=1;resizeParentMax=0;resizeLast=0;collapsible=1;marginBottom=0;whiteSpace=wrap;html=1;" parent="1" vertex="1" collapsed="1">
          <mxGeometry x="-200" y="400" width="110" height="30" as="geometry">
            <mxRectangle x="-200" y="400" width="140" height="52" as="alternateBounds" />
          </mxGeometry>
        </mxCell>
        <mxCell id="ZGfRNfo8w7-t7I-uebtl-10" value="Projekte" style="swimlane;fontStyle=0;childLayout=stackLayout;horizontal=1;startSize=26;fillColor=none;horizontalStack=0;resizeParent=1;resizeParentMax=0;resizeLast=0;collapsible=1;marginBottom=0;whiteSpace=wrap;html=1;" parent="1" vertex="1" collapsed="1">
          <mxGeometry x="30" y="490" width="80" height="30" as="geometry">
            <mxRectangle x="40" y="520" width="160" height="52" as="alternateBounds" />
          </mxGeometry>
        </mxCell>
        <mxCell id="ZGfRNfo8w7-t7I-uebtl-11" value="Gerueste" style="swimlane;fontStyle=0;childLayout=stackLayout;horizontal=1;startSize=26;fillColor=none;horizontalStack=0;resizeParent=1;resizeParentMax=0;resizeLast=0;collapsible=1;marginBottom=0;whiteSpace=wrap;html=1;" parent="1" vertex="1" collapsed="1">
          <mxGeometry x="280" y="340" width="110" height="30" as="geometry">
            <mxRectangle x="280" y="340" width="160" height="52" as="alternateBounds" />
          </mxGeometry>
        </mxCell>
        <mxCell id="ZGfRNfo8w7-t7I-uebtl-12" value="Equipments" style="swimlane;fontStyle=0;childLayout=stackLayout;horizontal=1;startSize=26;fillColor=none;horizontalStack=0;resizeParent=1;resizeParentMax=0;resizeLast=0;collapsible=1;marginBottom=0;whiteSpace=wrap;html=1;comic=0;" parent="1" vertex="1" collapsed="1">
          <mxGeometry x="30" y="370" width="100" height="30" as="geometry">
            <mxRectangle x="30" y="370" width="160" height="52" as="alternateBounds" />
          </mxGeometry>
        </mxCell>
        <mxCell id="ZGfRNfo8w7-t7I-uebtl-15" value="" style="edgeStyle=orthogonalEdgeStyle;fontSize=12;html=1;endArrow=ERoneToMany;rounded=0;exitX=1;exitY=0.5;exitDx=0;exitDy=0;entryX=0;entryY=0.5;entryDx=0;entryDy=0;curved=1;" parent="1" source="ZGfRNfo8w7-t7I-uebtl-12" target="ZGfRNfo8w7-t7I-uebtl-11" edge="1">
          <mxGeometry width="100" height="100" relative="1" as="geometry">
            <mxPoint x="570" y="276" as="sourcePoint" />
            <mxPoint x="340" y="70" as="targetPoint" />
          </mxGeometry>
        </mxCell>
        <mxCell id="ZGfRNfo8w7-t7I-uebtl-17" value="" style="edgeStyle=entityRelationEdgeStyle;fontSize=12;html=1;endArrow=ERoneToMany;rounded=1;exitX=1;exitY=0.5;exitDx=0;exitDy=0;entryX=0;entryY=0.5;entryDx=0;entryDy=0;" parent="1" source="ZGfRNfo8w7-t7I-uebtl-6" target="ZGfRNfo8w7-t7I-uebtl-11" edge="1">
          <mxGeometry width="100" height="100" relative="1" as="geometry">
            <mxPoint x="210" y="396" as="sourcePoint" />
            <mxPoint x="240" y="390" as="targetPoint" />
            <Array as="points">
              <mxPoint x="440" y="160" />
              <mxPoint x="430" y="160" />
            </Array>
          </mxGeometry>
        </mxCell>
        <mxCell id="ZGfRNfo8w7-t7I-uebtl-18" value="" style="edgeStyle=entityRelationEdgeStyle;fontSize=12;html=1;endArrow=ERoneToMany;rounded=1;exitX=1;exitY=0.5;exitDx=0;exitDy=0;entryX=0;entryY=0.5;entryDx=0;entryDy=0;" parent="1" source="ZGfRNfo8w7-t7I-uebtl-10" target="ZGfRNfo8w7-t7I-uebtl-11" edge="1">
          <mxGeometry width="100" height="100" relative="1" as="geometry">
            <mxPoint x="210" y="476" as="sourcePoint" />
            <mxPoint x="280" y="390" as="targetPoint" />
            <Array as="points">
              <mxPoint x="450" y="170" />
              <mxPoint x="440" y="170" />
            </Array>
          </mxGeometry>
        </mxCell>
        <mxCell id="ZGfRNfo8w7-t7I-uebtl-19" value="" style="edgeStyle=entityRelationEdgeStyle;fontSize=12;html=1;endArrow=ERoneToMany;rounded=1;exitX=1;exitY=0.5;exitDx=0;exitDy=0;entryX=0;entryY=0.5;entryDx=0;entryDy=0;comic=0;" parent="1" source="ZGfRNfo8w7-t7I-uebtl-2" target="ZGfRNfo8w7-t7I-uebtl-11" edge="1">
          <mxGeometry width="100" height="100" relative="1" as="geometry">
            <mxPoint x="210" y="556" as="sourcePoint" />
            <mxPoint x="290" y="396" as="targetPoint" />
            <Array as="points">
              <mxPoint x="460" y="180" />
              <mxPoint x="200" y="600" />
              <mxPoint x="450" y="180" />
            </Array>
          </mxGeometry>
        </mxCell>
        <mxCell id="ZGfRNfo8w7-t7I-uebtl-21" value="" style="edgeStyle=orthogonalEdgeStyle;fontSize=12;html=1;endArrow=ERoneToMany;curved=1;endSize=6;entryX=0;entryY=0.5;entryDx=0;entryDy=0;flowAnimation=0;ignoreEdge=0;orthogonalLoop=0;orthogonal=1;noJump=0;deletable=1;snapToPoint=1;anchorPointDirection=0;exitX=1;exitY=0.5;exitDx=0;exitDy=0;" parent="1" source="ZGfRNfo8w7-t7I-uebtl-2" target="ZGfRNfo8w7-t7I-uebtl-6" edge="1">
          <mxGeometry width="100" height="100" relative="1" as="geometry">
            <mxPoint x="-70" y="592" as="sourcePoint" />
            <mxPoint x="30" y="492" as="targetPoint" />
          </mxGeometry>
        </mxCell>
        <mxCell id="ZGfRNfo8w7-t7I-uebtl-22" value="" style="edgeStyle=orthogonalEdgeStyle;fontSize=12;html=1;endArrow=ERoneToMany;curved=1;endSize=6;flowAnimation=0;ignoreEdge=0;orthogonalLoop=0;orthogonal=1;noJump=0;deletable=1;snapToPoint=1;anchorPointDirection=0;exitX=1;exitY=0.5;exitDx=0;exitDy=0;" parent="1" source="ZGfRNfo8w7-t7I-uebtl-9" target="ZGfRNfo8w7-t7I-uebtl-12" edge="1">
          <mxGeometry width="100" height="100" relative="1" as="geometry">
            <mxPoint x="-40" y="306" as="sourcePoint" />
            <mxPoint x="50" y="276" as="targetPoint" />
          </mxGeometry>
        </mxCell>
      </root>
    </mxGraphModel>
  </diagram>
</mxfile>
